<mxfile host="app.diagrams.net" agent="Mozilla/5.0 (Windows NT 10.0; Win64; x64) AppleWebKit/537.36 (KHTML, like Gecko) Chrome/140.0.0.0 Safari/537.36 Edg/140.0.0.0" version="28.2.1">
  <diagram name="Page-1" id="7L4DRxaKPTcBMaArdyD-">
    <mxGraphModel dx="1844" dy="460" grid="1" gridSize="10" guides="1" tooltips="1" connect="1" arrows="1" fold="1" page="1" pageScale="1" pageWidth="827" pageHeight="1169" math="0" shadow="0">
      <root>
        <mxCell id="0" />
        <mxCell id="1" parent="0" />
        <mxCell id="cZhiFJx8ISOqOYQU9Z9h-2" value="ドメインモデル" style="text;html=1;align=center;verticalAlign=middle;whiteSpace=wrap;rounded=0;" parent="1" vertex="1">
          <mxGeometry x="30" y="10" width="110" height="30" as="geometry" />
        </mxCell>
        <mxCell id="cZhiFJx8ISOqOYQU9Z9h-3" value="乗り物" style="rounded=0;whiteSpace=wrap;html=1;" parent="1" vertex="1">
          <mxGeometry x="210" y="50" width="120" height="50" as="geometry" />
        </mxCell>
        <mxCell id="cZhiFJx8ISOqOYQU9Z9h-4" value="車" style="rounded=0;whiteSpace=wrap;html=1;" parent="1" vertex="1">
          <mxGeometry x="160" y="150" width="60" height="50" as="geometry" />
        </mxCell>
        <mxCell id="cZhiFJx8ISOqOYQU9Z9h-6" value="船" style="rounded=0;whiteSpace=wrap;html=1;" parent="1" vertex="1">
          <mxGeometry x="240" y="150" width="60" height="50" as="geometry" />
        </mxCell>
        <mxCell id="cZhiFJx8ISOqOYQU9Z9h-7" value="飛行機" style="rounded=0;whiteSpace=wrap;html=1;" parent="1" vertex="1">
          <mxGeometry x="320" y="150" width="60" height="50" as="geometry" />
        </mxCell>
        <mxCell id="cZhiFJx8ISOqOYQU9Z9h-9" value="" style="endArrow=block;html=1;rounded=0;exitX=0.75;exitY=0;exitDx=0;exitDy=0;entryX=0.25;entryY=1;entryDx=0;entryDy=0;endFill=0;" parent="1" source="cZhiFJx8ISOqOYQU9Z9h-4" target="cZhiFJx8ISOqOYQU9Z9h-3" edge="1">
          <mxGeometry width="50" height="50" relative="1" as="geometry">
            <mxPoint x="460" y="190" as="sourcePoint" />
            <mxPoint x="510" y="140" as="targetPoint" />
          </mxGeometry>
        </mxCell>
        <mxCell id="cZhiFJx8ISOqOYQU9Z9h-10" value="" style="endArrow=block;html=1;rounded=0;exitX=0.5;exitY=0;exitDx=0;exitDy=0;entryX=0.5;entryY=1;entryDx=0;entryDy=0;endFill=0;" parent="1" source="cZhiFJx8ISOqOYQU9Z9h-6" target="cZhiFJx8ISOqOYQU9Z9h-3" edge="1">
          <mxGeometry width="50" height="50" relative="1" as="geometry">
            <mxPoint x="380" y="370" as="sourcePoint" />
            <mxPoint x="455" y="310" as="targetPoint" />
          </mxGeometry>
        </mxCell>
        <mxCell id="cZhiFJx8ISOqOYQU9Z9h-11" value="" style="endArrow=block;html=1;rounded=0;exitX=0.5;exitY=0;exitDx=0;exitDy=0;entryX=0.75;entryY=1;entryDx=0;entryDy=0;endFill=0;" parent="1" source="cZhiFJx8ISOqOYQU9Z9h-7" target="cZhiFJx8ISOqOYQU9Z9h-3" edge="1">
          <mxGeometry width="50" height="50" relative="1" as="geometry">
            <mxPoint x="350" y="300" as="sourcePoint" />
            <mxPoint x="425" y="240" as="targetPoint" />
          </mxGeometry>
        </mxCell>
        <mxCell id="cZhiFJx8ISOqOYQU9Z9h-12" value="汎化&amp;nbsp;&lt;div&gt;is a 関係&lt;/div&gt;" style="text;html=1;align=center;verticalAlign=middle;whiteSpace=wrap;rounded=0;fontColor=#FF3333;" parent="1" vertex="1">
          <mxGeometry x="139" y="40" width="60" height="30" as="geometry" />
        </mxCell>
        <mxCell id="cZhiFJx8ISOqOYQU9Z9h-13" value="車" style="rounded=0;whiteSpace=wrap;html=1;" parent="1" vertex="1">
          <mxGeometry x="560" y="50" width="60" height="50" as="geometry" />
        </mxCell>
        <mxCell id="cZhiFJx8ISOqOYQU9Z9h-14" value="エンジン" style="rounded=0;whiteSpace=wrap;html=1;" parent="1" vertex="1">
          <mxGeometry x="490" y="140" width="90" height="30" as="geometry" />
        </mxCell>
        <mxCell id="cZhiFJx8ISOqOYQU9Z9h-15" value="ボディ" style="rounded=0;whiteSpace=wrap;html=1;" parent="1" vertex="1">
          <mxGeometry x="610" y="140" width="80" height="30" as="geometry" />
        </mxCell>
        <mxCell id="cZhiFJx8ISOqOYQU9Z9h-16" value="ハンドル" style="rounded=0;whiteSpace=wrap;html=1;" parent="1" vertex="1">
          <mxGeometry x="560" y="210" width="80" height="30" as="geometry" />
        </mxCell>
        <mxCell id="cZhiFJx8ISOqOYQU9Z9h-17" value="ライト" style="rounded=0;whiteSpace=wrap;html=1;" parent="1" vertex="1">
          <mxGeometry x="660" y="210" width="80" height="30" as="geometry" />
        </mxCell>
        <mxCell id="cZhiFJx8ISOqOYQU9Z9h-18" value="" style="endArrow=diamondThin;html=1;rounded=0;endFill=0;entryX=0.25;entryY=1;entryDx=0;entryDy=0;exitX=0.5;exitY=0;exitDx=0;exitDy=0;endSize=15;" parent="1" source="cZhiFJx8ISOqOYQU9Z9h-14" target="cZhiFJx8ISOqOYQU9Z9h-13" edge="1">
          <mxGeometry width="50" height="50" relative="1" as="geometry">
            <mxPoint x="450" y="190" as="sourcePoint" />
            <mxPoint x="500" y="140" as="targetPoint" />
          </mxGeometry>
        </mxCell>
        <mxCell id="cZhiFJx8ISOqOYQU9Z9h-19" value="" style="endArrow=diamondThin;html=1;rounded=0;endFill=0;entryX=0.75;entryY=1;entryDx=0;entryDy=0;exitX=0.5;exitY=0;exitDx=0;exitDy=0;endSize=15;" parent="1" source="cZhiFJx8ISOqOYQU9Z9h-15" target="cZhiFJx8ISOqOYQU9Z9h-13" edge="1">
          <mxGeometry width="50" height="50" relative="1" as="geometry">
            <mxPoint x="700" y="120" as="sourcePoint" />
            <mxPoint x="740" y="90" as="targetPoint" />
          </mxGeometry>
        </mxCell>
        <mxCell id="cZhiFJx8ISOqOYQU9Z9h-21" value="" style="endArrow=diamondThin;html=1;rounded=0;endFill=0;entryX=0.75;entryY=1;entryDx=0;entryDy=0;exitX=0.5;exitY=0;exitDx=0;exitDy=0;endSize=15;" parent="1" source="cZhiFJx8ISOqOYQU9Z9h-17" target="cZhiFJx8ISOqOYQU9Z9h-15" edge="1">
          <mxGeometry width="50" height="50" relative="1" as="geometry">
            <mxPoint x="740" y="170" as="sourcePoint" />
            <mxPoint x="780" y="140" as="targetPoint" />
          </mxGeometry>
        </mxCell>
        <mxCell id="cZhiFJx8ISOqOYQU9Z9h-22" value="" style="endArrow=diamondThin;html=1;rounded=0;endFill=0;entryX=0.25;entryY=1;entryDx=0;entryDy=0;exitX=0.5;exitY=0;exitDx=0;exitDy=0;endSize=15;" parent="1" source="cZhiFJx8ISOqOYQU9Z9h-16" target="cZhiFJx8ISOqOYQU9Z9h-15" edge="1">
          <mxGeometry width="50" height="50" relative="1" as="geometry">
            <mxPoint x="700" y="340" as="sourcePoint" />
            <mxPoint x="630" y="290" as="targetPoint" />
          </mxGeometry>
        </mxCell>
        <mxCell id="cZhiFJx8ISOqOYQU9Z9h-23" style="edgeStyle=orthogonalEdgeStyle;rounded=0;orthogonalLoop=1;jettySize=auto;html=1;exitX=0.5;exitY=1;exitDx=0;exitDy=0;" parent="1" source="cZhiFJx8ISOqOYQU9Z9h-17" target="cZhiFJx8ISOqOYQU9Z9h-17" edge="1">
          <mxGeometry relative="1" as="geometry" />
        </mxCell>
        <mxCell id="cZhiFJx8ISOqOYQU9Z9h-24" value="&lt;div&gt;集約&lt;/div&gt;has a 関係" style="text;html=1;align=center;verticalAlign=middle;whiteSpace=wrap;rounded=0;fontColor=#FF3333;" parent="1" vertex="1">
          <mxGeometry x="480" y="40" width="60" height="30" as="geometry" />
        </mxCell>
        <mxCell id="cZhiFJx8ISOqOYQU9Z9h-25" value="利用者" style="rounded=0;whiteSpace=wrap;html=1;" parent="1" vertex="1">
          <mxGeometry x="108" y="300" width="101" height="40" as="geometry" />
        </mxCell>
        <mxCell id="cZhiFJx8ISOqOYQU9Z9h-26" value="図書カード" style="rounded=0;whiteSpace=wrap;html=1;" parent="1" vertex="1">
          <mxGeometry x="109" y="380" width="101" height="40" as="geometry" />
        </mxCell>
        <mxCell id="cZhiFJx8ISOqOYQU9Z9h-27" value="ID" style="rounded=0;whiteSpace=wrap;html=1;" parent="1" vertex="1">
          <mxGeometry y="530" width="61" height="40" as="geometry" />
        </mxCell>
        <mxCell id="cZhiFJx8ISOqOYQU9Z9h-28" value="" style="endArrow=diamondThin;html=1;rounded=0;endFill=0;entryX=0.5;entryY=1;entryDx=0;entryDy=0;exitX=0.5;exitY=0;exitDx=0;exitDy=0;endSize=15;" parent="1" source="cZhiFJx8ISOqOYQU9Z9h-26" target="cZhiFJx8ISOqOYQU9Z9h-25" edge="1">
          <mxGeometry width="50" height="50" relative="1" as="geometry">
            <mxPoint x="250" y="400" as="sourcePoint" />
            <mxPoint x="280" y="360" as="targetPoint" />
          </mxGeometry>
        </mxCell>
        <mxCell id="cZhiFJx8ISOqOYQU9Z9h-29" value="パスワード" style="rounded=0;whiteSpace=wrap;html=1;" parent="1" vertex="1">
          <mxGeometry x="70" y="530" width="70" height="40" as="geometry" />
        </mxCell>
        <mxCell id="cZhiFJx8ISOqOYQU9Z9h-30" value="" style="endArrow=diamondThin;html=1;rounded=0;endFill=0;entryX=0.25;entryY=1;entryDx=0;entryDy=0;exitX=0.5;exitY=0;exitDx=0;exitDy=0;endSize=15;" parent="1" source="cZhiFJx8ISOqOYQU9Z9h-27" target="cZhiFJx8ISOqOYQU9Z9h-26" edge="1">
          <mxGeometry width="50" height="50" relative="1" as="geometry">
            <mxPoint x="250" y="440" as="sourcePoint" />
            <mxPoint x="280" y="400" as="targetPoint" />
          </mxGeometry>
        </mxCell>
        <mxCell id="cZhiFJx8ISOqOYQU9Z9h-31" value="" style="endArrow=diamondThin;html=1;rounded=0;endFill=0;entryX=0.388;entryY=0.944;entryDx=0;entryDy=0;exitX=0.5;exitY=0;exitDx=0;exitDy=0;endSize=15;entryPerimeter=0;" parent="1" source="cZhiFJx8ISOqOYQU9Z9h-29" target="cZhiFJx8ISOqOYQU9Z9h-26" edge="1">
          <mxGeometry width="50" height="50" relative="1" as="geometry">
            <mxPoint x="330" y="450" as="sourcePoint" />
            <mxPoint x="360" y="410" as="targetPoint" />
          </mxGeometry>
        </mxCell>
        <mxCell id="cZhiFJx8ISOqOYQU9Z9h-42" value="書名" style="rounded=0;whiteSpace=wrap;html=1;" parent="1" vertex="1">
          <mxGeometry x="325" y="385" width="50" height="30" as="geometry" />
        </mxCell>
        <mxCell id="cZhiFJx8ISOqOYQU9Z9h-43" value="著者" style="rounded=0;whiteSpace=wrap;html=1;" parent="1" vertex="1">
          <mxGeometry x="263" y="385" width="50" height="30" as="geometry" />
        </mxCell>
        <mxCell id="cZhiFJx8ISOqOYQU9Z9h-45" value="図書" style="rounded=0;whiteSpace=wrap;html=1;" parent="1" vertex="1">
          <mxGeometry x="313" y="300" width="101" height="40" as="geometry" />
        </mxCell>
        <mxCell id="cZhiFJx8ISOqOYQU9Z9h-46" value="" style="endArrow=none;html=1;rounded=0;exitX=1;exitY=0.5;exitDx=0;exitDy=0;entryX=0;entryY=0.5;entryDx=0;entryDy=0;" parent="1" source="cZhiFJx8ISOqOYQU9Z9h-25" target="cZhiFJx8ISOqOYQU9Z9h-45" edge="1">
          <mxGeometry width="50" height="50" relative="1" as="geometry">
            <mxPoint x="340" y="480" as="sourcePoint" />
            <mxPoint x="390" y="430" as="targetPoint" />
          </mxGeometry>
        </mxCell>
        <mxCell id="cZhiFJx8ISOqOYQU9Z9h-47" value="検索" style="text;html=1;align=center;verticalAlign=middle;whiteSpace=wrap;rounded=0;" parent="1" vertex="1">
          <mxGeometry x="230" y="290" width="60" height="30" as="geometry" />
        </mxCell>
        <mxCell id="cZhiFJx8ISOqOYQU9Z9h-48" value="" style="endArrow=diamondThin;html=1;rounded=0;endFill=0;entryX=0.25;entryY=1;entryDx=0;entryDy=0;exitX=0.5;exitY=0;exitDx=0;exitDy=0;endSize=15;" parent="1" source="cZhiFJx8ISOqOYQU9Z9h-43" target="cZhiFJx8ISOqOYQU9Z9h-45" edge="1">
          <mxGeometry width="50" height="50" relative="1" as="geometry">
            <mxPoint x="330" y="400" as="sourcePoint" />
            <mxPoint x="360" y="360" as="targetPoint" />
          </mxGeometry>
        </mxCell>
        <mxCell id="cZhiFJx8ISOqOYQU9Z9h-49" value="" style="endArrow=diamondThin;html=1;rounded=0;endFill=0;entryX=0.366;entryY=0.989;entryDx=0;entryDy=0;exitX=0.5;exitY=0;exitDx=0;exitDy=0;endSize=15;entryPerimeter=0;" parent="1" source="cZhiFJx8ISOqOYQU9Z9h-42" target="cZhiFJx8ISOqOYQU9Z9h-45" edge="1">
          <mxGeometry width="50" height="50" relative="1" as="geometry">
            <mxPoint x="500" y="370" as="sourcePoint" />
            <mxPoint x="530" y="330" as="targetPoint" />
          </mxGeometry>
        </mxCell>
        <mxCell id="cZhiFJx8ISOqOYQU9Z9h-51" value="貸し出し予約" style="rounded=0;whiteSpace=wrap;html=1;" parent="1" vertex="1">
          <mxGeometry x="10" y="250" width="110" height="40" as="geometry" />
        </mxCell>
        <mxCell id="cZhiFJx8ISOqOYQU9Z9h-53" value="氏名" style="rounded=0;whiteSpace=wrap;html=1;" parent="1" vertex="1">
          <mxGeometry x="150" y="530" width="61" height="40" as="geometry" />
        </mxCell>
        <mxCell id="cZhiFJx8ISOqOYQU9Z9h-54" value="住所" style="rounded=0;whiteSpace=wrap;html=1;" parent="1" vertex="1">
          <mxGeometry x="220" y="530" width="61" height="40" as="geometry" />
        </mxCell>
        <mxCell id="cZhiFJx8ISOqOYQU9Z9h-55" value="電話番号" style="rounded=0;whiteSpace=wrap;html=1;" parent="1" vertex="1">
          <mxGeometry x="370" y="530" width="61" height="40" as="geometry" />
        </mxCell>
        <mxCell id="cZhiFJx8ISOqOYQU9Z9h-56" value="メールアドレス" style="rounded=0;whiteSpace=wrap;html=1;" parent="1" vertex="1">
          <mxGeometry x="290" y="530" width="61" height="40" as="geometry" />
        </mxCell>
        <mxCell id="cZhiFJx8ISOqOYQU9Z9h-57" value="" style="endArrow=diamondThin;html=1;rounded=0;endFill=0;entryX=0.5;entryY=1;entryDx=0;entryDy=0;exitX=0.5;exitY=0;exitDx=0;exitDy=0;endSize=15;" parent="1" source="cZhiFJx8ISOqOYQU9Z9h-53" target="cZhiFJx8ISOqOYQU9Z9h-26" edge="1">
          <mxGeometry width="50" height="50" relative="1" as="geometry">
            <mxPoint x="170" y="500" as="sourcePoint" />
            <mxPoint x="185" y="440" as="targetPoint" />
          </mxGeometry>
        </mxCell>
        <mxCell id="cZhiFJx8ISOqOYQU9Z9h-58" value="" style="endArrow=diamondThin;html=1;rounded=0;endFill=0;entryX=0.646;entryY=1.005;entryDx=0;entryDy=0;exitX=0.5;exitY=0;exitDx=0;exitDy=0;endSize=15;entryPerimeter=0;" parent="1" source="cZhiFJx8ISOqOYQU9Z9h-54" target="cZhiFJx8ISOqOYQU9Z9h-26" edge="1">
          <mxGeometry width="50" height="50" relative="1" as="geometry">
            <mxPoint x="280" y="480" as="sourcePoint" />
            <mxPoint x="240" y="440" as="targetPoint" />
          </mxGeometry>
        </mxCell>
        <mxCell id="cZhiFJx8ISOqOYQU9Z9h-59" value="" style="endArrow=diamondThin;html=1;rounded=0;endFill=0;entryX=0.814;entryY=1.005;entryDx=0;entryDy=0;exitX=0.5;exitY=0;exitDx=0;exitDy=0;endSize=15;entryPerimeter=0;" parent="1" source="cZhiFJx8ISOqOYQU9Z9h-55" target="cZhiFJx8ISOqOYQU9Z9h-26" edge="1">
          <mxGeometry width="50" height="50" relative="1" as="geometry">
            <mxPoint x="290" y="430" as="sourcePoint" />
            <mxPoint x="250" y="390" as="targetPoint" />
          </mxGeometry>
        </mxCell>
        <mxCell id="cZhiFJx8ISOqOYQU9Z9h-60" value="" style="endArrow=diamondThin;html=1;rounded=0;endFill=0;entryX=0.75;entryY=1;entryDx=0;entryDy=0;exitX=0.5;exitY=0;exitDx=0;exitDy=0;endSize=15;" parent="1" source="cZhiFJx8ISOqOYQU9Z9h-56" target="cZhiFJx8ISOqOYQU9Z9h-26" edge="1">
          <mxGeometry width="50" height="50" relative="1" as="geometry">
            <mxPoint x="380" y="520" as="sourcePoint" />
            <mxPoint x="340" y="480" as="targetPoint" />
          </mxGeometry>
        </mxCell>
        <mxCell id="cZhiFJx8ISOqOYQU9Z9h-62" value="貸し出し中か" style="rounded=0;whiteSpace=wrap;html=1;" parent="1" vertex="1">
          <mxGeometry x="500" y="380" width="110" height="40" as="geometry" />
        </mxCell>
        <mxCell id="cZhiFJx8ISOqOYQU9Z9h-63" value="どこの棚にあるか&lt;div&gt;棚の位置&lt;/div&gt;" style="rounded=0;whiteSpace=wrap;html=1;" parent="1" vertex="1">
          <mxGeometry x="380" y="385" width="110" height="40" as="geometry" />
        </mxCell>
        <mxCell id="cZhiFJx8ISOqOYQU9Z9h-65" value="貸し出し期限" style="rounded=0;whiteSpace=wrap;html=1;" parent="1" vertex="1">
          <mxGeometry x="-130" y="530" width="110" height="40" as="geometry" />
        </mxCell>
        <mxCell id="cZhiFJx8ISOqOYQU9Z9h-67" value="" style="endArrow=diamondThin;html=1;rounded=0;endFill=0;entryX=0.594;entryY=1.035;entryDx=0;entryDy=0;exitX=0.5;exitY=0;exitDx=0;exitDy=0;endSize=15;entryPerimeter=0;" parent="1" source="cZhiFJx8ISOqOYQU9Z9h-63" target="cZhiFJx8ISOqOYQU9Z9h-45" edge="1">
          <mxGeometry width="50" height="50" relative="1" as="geometry">
            <mxPoint x="390" y="385" as="sourcePoint" />
            <mxPoint x="390" y="340" as="targetPoint" />
          </mxGeometry>
        </mxCell>
        <mxCell id="cZhiFJx8ISOqOYQU9Z9h-68" value="" style="endArrow=diamondThin;html=1;rounded=0;endFill=0;entryX=1;entryY=0.5;entryDx=0;entryDy=0;exitX=0.5;exitY=0;exitDx=0;exitDy=0;endSize=15;" parent="1" source="cZhiFJx8ISOqOYQU9Z9h-62" target="cZhiFJx8ISOqOYQU9Z9h-45" edge="1">
          <mxGeometry width="50" height="50" relative="1" as="geometry">
            <mxPoint x="480" y="375" as="sourcePoint" />
            <mxPoint x="480" y="330" as="targetPoint" />
          </mxGeometry>
        </mxCell>
        <mxCell id="cZhiFJx8ISOqOYQU9Z9h-70" value="借りている本" style="rounded=0;whiteSpace=wrap;html=1;" parent="1" vertex="1">
          <mxGeometry x="-60" y="380" width="110" height="40" as="geometry" />
        </mxCell>
        <mxCell id="cZhiFJx8ISOqOYQU9Z9h-71" value="" style="endArrow=diamondThin;html=1;rounded=0;endFill=0;entryX=0;entryY=0.5;entryDx=0;entryDy=0;exitX=1;exitY=0.5;exitDx=0;exitDy=0;endSize=15;" parent="1" source="cZhiFJx8ISOqOYQU9Z9h-70" target="cZhiFJx8ISOqOYQU9Z9h-26" edge="1">
          <mxGeometry width="50" height="50" relative="1" as="geometry">
            <mxPoint x="-70" y="510" as="sourcePoint" />
            <mxPoint x="13" y="470" as="targetPoint" />
          </mxGeometry>
        </mxCell>
        <mxCell id="cZhiFJx8ISOqOYQU9Z9h-72" value="" style="endArrow=diamondThin;html=1;rounded=0;endFill=0;entryX=0.5;entryY=1;entryDx=0;entryDy=0;exitX=0.5;exitY=0;exitDx=0;exitDy=0;endSize=15;" parent="1" source="cZhiFJx8ISOqOYQU9Z9h-65" target="cZhiFJx8ISOqOYQU9Z9h-70" edge="1">
          <mxGeometry width="50" height="50" relative="1" as="geometry">
            <mxPoint x="-160" y="480" as="sourcePoint" />
            <mxPoint x="-77" y="440" as="targetPoint" />
          </mxGeometry>
        </mxCell>
        <mxCell id="cZhiFJx8ISOqOYQU9Z9h-73" value="著者" style="rounded=0;whiteSpace=wrap;html=1;" parent="1" vertex="1">
          <mxGeometry x="-140" y="440" width="50" height="30" as="geometry" />
        </mxCell>
        <mxCell id="cZhiFJx8ISOqOYQU9Z9h-74" value="書名" style="rounded=0;whiteSpace=wrap;html=1;" parent="1" vertex="1">
          <mxGeometry x="-140" y="490" width="50" height="30" as="geometry" />
        </mxCell>
        <mxCell id="cZhiFJx8ISOqOYQU9Z9h-75" value="" style="endArrow=diamondThin;html=1;rounded=0;endFill=0;entryX=0;entryY=1;entryDx=0;entryDy=0;exitX=1;exitY=0.5;exitDx=0;exitDy=0;endSize=15;" parent="1" source="cZhiFJx8ISOqOYQU9Z9h-73" target="cZhiFJx8ISOqOYQU9Z9h-70" edge="1">
          <mxGeometry width="50" height="50" relative="1" as="geometry">
            <mxPoint x="-90" y="370" as="sourcePoint" />
            <mxPoint x="-50" y="330" as="targetPoint" />
          </mxGeometry>
        </mxCell>
        <mxCell id="cZhiFJx8ISOqOYQU9Z9h-76" value="" style="endArrow=diamondThin;html=1;rounded=0;endFill=0;entryX=0.25;entryY=1;entryDx=0;entryDy=0;exitX=1;exitY=0.5;exitDx=0;exitDy=0;endSize=15;" parent="1" source="cZhiFJx8ISOqOYQU9Z9h-74" target="cZhiFJx8ISOqOYQU9Z9h-70" edge="1">
          <mxGeometry width="50" height="50" relative="1" as="geometry">
            <mxPoint x="-70" y="470" as="sourcePoint" />
            <mxPoint x="-30" y="430" as="targetPoint" />
          </mxGeometry>
        </mxCell>
        <mxCell id="cZhiFJx8ISOqOYQU9Z9h-77" value="あと何冊借りることができるか" style="rounded=0;whiteSpace=wrap;html=1;" parent="1" vertex="1">
          <mxGeometry x="450" y="520" width="120" height="60" as="geometry" />
        </mxCell>
        <mxCell id="cZhiFJx8ISOqOYQU9Z9h-78" value="" style="endArrow=diamondThin;html=1;rounded=0;endFill=0;exitX=0.5;exitY=0;exitDx=0;exitDy=0;endSize=15;" parent="1" source="cZhiFJx8ISOqOYQU9Z9h-77" target="cZhiFJx8ISOqOYQU9Z9h-26" edge="1">
          <mxGeometry width="50" height="50" relative="1" as="geometry">
            <mxPoint x="359" y="480" as="sourcePoint" />
            <mxPoint x="230" y="410" as="targetPoint" />
          </mxGeometry>
        </mxCell>
        <mxCell id="cZhiFJx8ISOqOYQU9Z9h-80" value="必要事項" style="rounded=0;whiteSpace=wrap;html=1;" parent="1" vertex="1">
          <mxGeometry x="-160" y="250" width="110" height="40" as="geometry" />
        </mxCell>
        <mxCell id="cZhiFJx8ISOqOYQU9Z9h-81" value="" style="endArrow=diamondThin;html=1;rounded=0;endFill=0;entryX=0;entryY=0.5;entryDx=0;entryDy=0;exitX=1;exitY=0.5;exitDx=0;exitDy=0;endSize=15;" parent="1" source="cZhiFJx8ISOqOYQU9Z9h-80" target="cZhiFJx8ISOqOYQU9Z9h-51" edge="1">
          <mxGeometry width="50" height="50" relative="1" as="geometry">
            <mxPoint x="10" y="240" as="sourcePoint" />
            <mxPoint x="50" y="245" as="targetPoint" />
          </mxGeometry>
        </mxCell>
        <mxCell id="cZhiFJx8ISOqOYQU9Z9h-82" value="" style="endArrow=none;html=1;rounded=0;entryX=0.5;entryY=1;entryDx=0;entryDy=0;exitX=0.5;exitY=0;exitDx=0;exitDy=0;" parent="1" source="cZhiFJx8ISOqOYQU9Z9h-25" target="cZhiFJx8ISOqOYQU9Z9h-51" edge="1">
          <mxGeometry width="50" height="50" relative="1" as="geometry">
            <mxPoint x="20" y="380" as="sourcePoint" />
            <mxPoint x="70" y="330" as="targetPoint" />
          </mxGeometry>
        </mxCell>
        <mxCell id="cZhiFJx8ISOqOYQU9Z9h-83" value="連絡を受ける" style="text;html=1;align=center;verticalAlign=middle;whiteSpace=wrap;rounded=0;" parent="1" vertex="1">
          <mxGeometry x="129" y="260" width="80" height="30" as="geometry" />
        </mxCell>
      </root>
    </mxGraphModel>
  </diagram>
</mxfile>
